<svg width="11" height="11" viewBox="0 0 11 11" fill="none" xmlns="http://www.w3.org/2000/svg">
<path d="M8.4657 7.3085L10.6072 9.4495L9.8997 10.157L7.7587 8.0155C6.96206 8.65411 5.9712 9.00145 4.9502 9C2.4662 9 0.450195 6.984 0.450195 4.5C0.450195 2.016 2.4662 0 4.9502 0C7.4342 0 9.4502 2.016 9.4502 4.5C9.45165 5.521 9.10431 6.51187 8.4657 7.3085ZM7.4627 6.9375C8.09725 6.28494 8.45163 5.41021 8.4502 4.5C8.4502 2.566 6.8837 1 4.9502 1C3.0162 1 1.4502 2.566 1.4502 4.5C1.4502 6.4335 3.0162 8 4.9502 8C5.86041 8.00143 6.73514 7.64706 7.3877 7.0125L7.4627 6.9375Z" fill="white"/>
</svg>
